<?xml version="1.0" encoding="UTF-8"?>
<svg id="Layer_2" xmlns="http://www.w3.org/2000/svg" version="1.1" viewBox="0 0 538.2 340">
  <!-- Generator: Adobe Illustrator 29.5.0, SVG Export Plug-In . SVG Version: 2.1.0 Build 137)  -->
  <defs>
    <style>
      .st0 {
        fill: #001f3f;
      }
    </style>
  </defs>
  <g id="Layer_2-2">
    <g>
      <g>
        <path class="st0" d="M286.5,164.3c1.1-6.5,11.5-3.8,16.9-4.1,11.8-.6,24.1-1.6,35.9-.8,3,.2,15.3,1.9,16.5,4.5l1,148.9c-.5.9-9,2.3-10.7,2.4-18.1,1.4-37.9-1.1-56.2,0-1.6.5-4.8-3.2-4.8-4.2v-48.7l-1.1-1.1h-18.7c-1.1.7-1,1.5-1.2,2.6-1.3,11.3.6,25.7,0,37.5-.2,3.7-1.4,7.6-.8,11.6-14.9,2.5-30.2,1.3-45.4,1.5-8.8.1-23.3,4.5-25.6-8-1.1-5.6-.1-10.4-.1-15.5,0-34.2.4-68.5,1.5-102.6.3-9.2-.8-18.4,1.5-27.4h53.6c1.7,0,8.5,1.7,10.3,2.5,2,.9,3.3,2,4.1,4.1.1,9.9.5,19.9.2,29.8-.1,4.6-2.4,11.1.3,15.3h21c.2,0,1.1-1,1.9-.8v-47.6h0s0,0,0,0Z"/>
        <path class="st0" d="M81.8,156.6c18.3-1.9,51.9-1.1,68.1,7.9,6.5,3.6,19.1,16.1,22.1,22.8.9,1.9,3,11.1,2.9,12.9-.1,1.5-3.4,4.6-4.9,4.9-17.3-1.3-36,2.4-53.1.7-9.2-1-6-3.8-10.2-7.7-6.9-6.4-34.6,3.5-12.7,11.2,29.4,10.2,82.3,8.7,85.4,50.9,2.8,38.5-29.8,52-61.9,56.5-35.6,5-98.1-.3-98.3-48.1l1.8-1.2,59.9-.7c5.3,1.3,5.4,7.5,9,10.5,12.2,10,35.6-6,15.9-15.1-13.3-6.1-31.2-6.4-45.5-10.7-28.3-8.5-48.6-23.7-37.8-56.5,7.7-23.4,36.6-35.6,59.4-38h0Z"/>
        <path class="st0" d="M511.7,170.2c9.4,7.9,16.9,17.2,17.5,30.1,0,1.1-2.9,4-3.7,4.4-2.9,1.3-20.4.2-25.1.4-9.5.3-19.5,1.7-29.1.7-9.7-1.1-6.3-4.6-11.3-8.1-7.9-5.6-32.6,4.5-11.6,11.6,29.2,9.9,82.7,9.1,85.4,50.9,1.2,19.4-7.5,35.9-24.3,45.3-33.7,18.9-130.1,21.5-135.9-30.4-.2-1.8-.8-7.1,1.1-7.7l60.5-.8c5.1,1.5,5.1,7.1,9,10.4,12.2,10.2,35.5-6.1,15.9-15.1-10.9-5-24.9-6.1-36.3-8.6-21-4.7-47.5-13.5-49.6-38.8-1.9-23.1,11.3-40.3,31.6-49.3,27-12,82.5-14.6,106,5.1h0s0,0,0,0Z"/>
      </g>
      <path class="st0" d="M538.2,339.9H0c0,0,.5-212.9.5-212.9L145.4,0l1,.2,145.3,128.9c0,.7-6.6,11.2-7.1,11.6-.9.8-1.4,1.2-2.6.4L144.6,21.7,14.6,135.8v187.2l523.7,1.1v15.7h0Z"/>
      <path class="st0" d="M195.5,11.4c44.5,38.2,87.9,77.7,132.2,116.1,2.2,3.7-5.9,10-6.9,13.8L175.6,15.8l-.7-2.1,7.8-13.1c4.2,3.7,8.6,7.2,12.8,10.8h0Z"/>
      <path class="st0" d="M241.2,18.2c41.7,36.3,83,73.1,124.7,109.4l.6,2.1-7.5,11.7L213,15.3l-.6-.9,8.6-13.7c6.7,5.9,13.6,11.7,20.3,17.5h0Z"/>
    </g>
  </g>
</svg>